<mxfile host="app.diagrams.net" modified="2024-06-10T21:55:14.711Z" agent="Mozilla/5.0 (X11; Linux x86_64) AppleWebKit/537.36 (KHTML, like Gecko) Chrome/120.0.0.0 Safari/537.36" version="24.5.2" etag="7rvQYzTchw22pJR1xQ-_" type="github">
  <diagram name="PÃ¡gina-1" id="JMPm8szdDdjPPYNUDUti">
    <mxGraphModel>
      <root>
        <mxCell id="0" />
        <mxCell id="1" parent="0" />
      </root>
    </mxGraphModel>
  </diagram>
</mxfile>
